<?xml version="1.0" encoding="UTF-8" standalone="no" ?>
<!DOCTYPE svg PUBLIC "-//W3C//DTD SVG 1.1//EN" "http://www.w3.org/Graphics/SVG/1.1/DTD/svg11.dtd">
<svg xmlns="http://www.w3.org/2000/svg" xmlns:xlink="http://www.w3.org/1999/xlink" version="1.1" width="512" height="512" viewBox="0 -128 1024 1024" xml:space="preserve">
<desc>Created with Fabric.js 4.6.0</desc>
<defs>
</defs>
<g transform="matrix(0.14 0 0 0.63 377.17 313.01)" id="QDTTV76W203mjoFjita6O"  >
<path style="stroke: rgb(70,69,119); stroke-width: 0; stroke-dasharray: none; stroke-linecap: butt; stroke-dashoffset: 0; stroke-linejoin: miter; stroke-miterlimit: 4; fill: rgb(209,91,65); fill-rule: nonzero; opacity: 1;" vector-effect="non-scaling-stroke"  transform=" translate(0, 0)" d="M -213.52466 -213.52466 L 213.52467 -213.52466 L 213.52467 213.52467 L -213.52466 213.52467 z" stroke-linecap="round" />
</g>
<g transform="matrix(1.15 0 0 1.15 497.98 244.64)" id="vDwHRM-XM2dzyldCgCORH"  >
<path style="stroke: rgb(163,206,224); stroke-width: 0; stroke-dasharray: none; stroke-linecap: butt; stroke-dashoffset: 0; stroke-linejoin: miter; stroke-miterlimit: 4; fill: rgb(44,90,209); fill-rule: nonzero; opacity: 1;" vector-effect="non-scaling-stroke"  transform=" translate(0, 0)" d="M 0 -57.3991 C 31.6843 -57.3991 57.3991 -31.684299999999997 57.3991 0 C 57.3991 31.6843 31.684299999999997 57.3991 0 57.3991 C -31.6843 57.3991 -57.3991 31.684299999999997 -57.3991 0 C -57.3991 -31.6843 -31.684299999999997 -57.3991 0 -57.3991 z" stroke-linecap="round" />
</g>
<g transform="matrix(1.14 0 0 1.14 497.98 390.25)" id="7DWQWtGc6PwYo-PuoYJEW"  >
<path style="stroke: none; stroke-width: 1; stroke-dasharray: none; stroke-linecap: butt; stroke-dashoffset: 0; stroke-linejoin: miter; stroke-miterlimit: 4; fill: rgb(136,209,23); fill-rule: nonzero; opacity: 1;" vector-effect="non-scaling-stroke"  transform=" translate(-489.14, -391.07)" d="M 485.278 355.84 L 494.045 373.111 Q 495.693 366.387 498.033 360.587 Q 500.373 354.786 503.537 350.468 Q 506.701 346.15 510.887 343.712 Q 515.073 341.273 520.412 341.273 L 520.412 341.273 Q 523.774 341.273 526.675 341.833 Q 529.575 342.393 531.816 343.382 Q 534.057 344.371 535.442 345.722 Q 536.826 347.073 537.024 348.721 L 537.024 348.721 Q 537.09 349.908 536.892 351.127 Q 536.694 352.347 536.167 353.336 Q 535.639 354.324 534.75 354.951 Q 533.86 355.577 532.673 355.577 L 532.673 355.577 Q 531.948 355.577 531.421 354.852 Q 530.893 354.127 530.333 353.072 Q 529.773 352.017 529.015 350.732 Q 528.257 349.446 527.103 348.392 Q 525.949 347.337 524.236 346.612 Q 522.522 345.887 520.017 345.887 L 520.017 345.887 Q 516.062 345.887 512.964 349.084 Q 509.865 352.281 507.459 357.686 Q 505.053 363.091 503.241 370.112 Q 501.428 377.132 499.978 384.844 L 499.978 384.844 L 522.126 428.087 Q 523.445 430.723 524.994 432.042 Q 526.543 433.36 528.652 433.36 L 528.652 433.36 Q 530.761 433.36 532.376 432.437 Q 533.991 431.514 535.244 430.525 L 535.244 430.525 L 536.892 432.503 Q 535.508 433.887 533.497 435.37 Q 531.487 436.854 528.982 438.073 Q 526.477 439.293 523.609 440.084 Q 520.742 440.875 517.578 440.875 L 517.578 440.875 Q 514.414 440.875 511.711 440.281 Q 509.009 439.688 506.504 438.073 Q 503.999 436.458 501.692 433.624 Q 499.385 430.789 497.011 426.307 L 497.011 426.307 L 487.19 407.125 Q 485.41 414.244 482.905 420.407 Q 480.4 426.57 477.005 431.119 Q 473.611 435.667 469.194 438.271 Q 464.778 440.875 459.24 440.875 L 459.24 440.875 Q 455.879 440.875 452.748 440.314 Q 449.616 439.754 447.145 438.765 Q 444.673 437.776 443.091 436.425 Q 441.509 435.074 441.311 433.492 L 441.311 433.492 Q 441.179 432.305 441.41 431.086 Q 441.64 429.866 442.168 428.878 Q 442.695 427.889 443.552 427.23 Q 444.409 426.57 445.595 426.57 L 445.595 426.57 Q 446.321 426.57 446.947 427.296 Q 447.573 428.021 448.298 429.108 Q 449.023 430.196 449.946 431.448 Q 450.869 432.701 452.187 433.788 Q 453.506 434.876 455.318 435.601 Q 457.131 436.326 459.636 436.326 L 459.636 436.326 Q 463.657 436.326 466.986 432.931 Q 470.315 429.537 472.951 423.868 Q 475.588 418.199 477.599 410.75 Q 479.609 403.301 481.125 395.259 L 481.125 395.259 L 460.163 354.127 Q 458.845 351.424 457.329 350.139 Q 455.813 348.853 453.703 348.853 L 453.703 348.853 Q 451.594 348.853 449.946 349.743 Q 448.298 350.633 447.112 351.688 L 447.112 351.688 L 445.464 349.644 Q 446.848 348.26 448.858 346.81 Q 450.869 345.359 453.341 344.107 Q 455.813 342.855 458.713 342.064 Q 461.614 341.273 464.778 341.273 L 464.778 341.273 Q 467.942 341.273 470.644 341.866 Q 473.347 342.459 475.819 344.074 Q 478.291 345.689 480.631 348.524 Q 482.971 351.358 485.278 355.84 L 485.278 355.84 Z" stroke-linecap="round" />
</g>
</svg>